<svg width="30" height="30" viewBox="0 0 30 30" fill="none" xmlns="http://www.w3.org/2000/svg">
<path d="M25.3972 5.89693C23.4519 5.00418 21.3992 4.36701 19.2903 4.0013C19.2712 3.99808 19.2516 4.00086 19.2341 4.00926C19.2167 4.01765 19.2022 4.03125 19.1928 4.04818C18.9284 4.51693 18.6359 5.13005 18.4316 5.61005C16.1583 5.26507 13.8461 5.26507 11.5728 5.61005C11.3448 5.07534 11.0869 4.55389 10.8003 4.04818C10.7907 4.03143 10.7762 4.01799 10.7588 4.00963C10.7414 4.00126 10.7219 3.99836 10.7028 4.0013C8.59344 4.36505 6.54032 5.00255 4.59594 5.89693C4.5793 5.90328 4.56539 5.91521 4.55657 5.93068C0.667817 11.7413 -0.399058 17.4094 0.124067 23.0063C0.125942 23.0326 0.142817 23.0588 0.163442 23.0757C2.42792 24.7531 4.9608 26.0338 7.65407 26.8632C7.67308 26.8692 7.69352 26.869 7.7124 26.8626C7.73128 26.8561 7.74763 26.8439 7.75907 26.8276C8.33657 26.0401 8.85032 25.2094 9.29282 24.3357C9.30204 24.3177 9.3052 24.2972 9.30182 24.2772C9.29844 24.2573 9.2887 24.239 9.27407 24.2251C9.26438 24.2159 9.25288 24.2089 9.24032 24.2044C8.43249 23.894 7.65012 23.521 6.90032 23.0888C6.87937 23.0769 6.8638 23.0575 6.85682 23.0344C6.84984 23.0114 6.85198 22.9865 6.86282 22.9651C6.8692 22.9511 6.87884 22.9389 6.89094 22.9294C7.04844 22.8113 7.20594 22.6876 7.35594 22.5638C7.36919 22.5531 7.38509 22.5463 7.40194 22.544C7.41878 22.5417 7.43594 22.544 7.45157 22.5507C12.3622 24.7932 17.6778 24.7932 22.5284 22.5507C22.5446 22.5437 22.5624 22.5412 22.5799 22.5435C22.5974 22.5458 22.614 22.5528 22.6278 22.5638C22.7778 22.6876 22.9353 22.8113 23.0928 22.9294C23.1056 22.9388 23.1158 22.9511 23.1227 22.9654C23.1295 22.9796 23.1327 22.9953 23.1319 23.0111C23.1312 23.0269 23.1265 23.0423 23.1184 23.0558C23.1103 23.0694 23.0989 23.0807 23.0853 23.0888C22.3372 23.5249 21.5538 23.8975 20.7434 24.2026C20.7305 24.2072 20.7188 24.2147 20.7091 24.2244C20.6993 24.2341 20.6919 24.2459 20.6872 24.2588C20.6829 24.2713 20.6811 24.2846 20.6821 24.2978C20.6831 24.311 20.6867 24.3239 20.6928 24.3357C21.1428 25.2076 21.6584 26.0401 22.2247 26.8276C22.2361 26.8439 22.2525 26.8561 22.2714 26.8626C22.2902 26.869 22.3107 26.8692 22.3297 26.8632C25.0275 26.0364 27.5645 24.7555 29.8316 23.0757C29.8429 23.0678 29.8524 23.0575 29.8592 23.0455C29.866 23.0335 29.87 23.0201 29.8709 23.0063C30.4972 16.5357 28.8228 10.9144 25.4347 5.93255C25.4313 5.92432 25.4262 5.9169 25.4197 5.91077C25.4133 5.90463 25.4056 5.89992 25.3972 5.89693V5.89693ZM10.0259 19.5976C8.54657 19.5976 7.32969 18.2401 7.32969 16.5751C7.32969 14.9082 8.52407 13.5507 10.0259 13.5507C11.5391 13.5507 12.7447 14.9194 12.7222 16.5751C12.7222 18.2401 11.5278 19.5976 10.0259 19.5976ZM19.9934 19.5976C18.5159 19.5976 17.2972 18.2401 17.2972 16.5751C17.2972 14.9082 18.4916 13.5507 19.9934 13.5507C21.5066 13.5507 22.7141 14.9194 22.6897 16.5751C22.6897 18.2401 21.5066 19.5976 19.9934 19.5976Z" fill="url(#paint0_linear_8_40)"/>
<defs>
<linearGradient id="paint0_linear_8_40" x1="-0.33654" y1="25.1066" x2="31.1228" y2="24.0706" gradientUnits="userSpaceOnUse">
<stop stop-color="#D17D00"/>
<stop offset="0.885417" stop-color="#FFAB2D"/>
</linearGradient>
</defs>
</svg>
