<svg width="30" height="30" viewBox="0 0 30 30" fill="none" xmlns="http://www.w3.org/2000/svg">
<g clip-path="url(#clip0_8_36)">
<path d="M15.0002 0C6.71274 0 0.000244141 6.7125 0.000244141 15C0.000244141 21.6375 4.29399 27.2438 10.2565 29.2313C11.0065 29.3625 11.2877 28.9125 11.2877 28.5188C11.2877 28.1625 11.269 26.9813 11.269 25.725C7.50024 26.4188 6.52524 24.8062 6.22524 23.9625C6.05649 23.5312 5.32524 22.2 4.68774 21.8437C4.16274 21.5625 3.41274 20.8687 4.66899 20.85C5.85024 20.8312 6.69399 21.9375 6.97524 22.3875C8.32524 24.6562 10.4815 24.0188 11.344 23.625C11.4752 22.65 11.869 21.9937 12.3002 21.6187C8.96274 21.2437 5.47524 19.95 5.47524 14.2125C5.47524 12.5812 6.05649 11.2312 7.01274 10.1812C6.86274 9.80625 6.33774 8.26875 7.16274 6.20625C7.16274 6.20625 8.41899 5.8125 11.2877 7.74375C12.4877 7.40625 13.7627 7.2375 15.0377 7.2375C16.3127 7.2375 17.5877 7.40625 18.7877 7.74375C21.6565 5.79375 22.9127 6.20625 22.9127 6.20625C23.7377 8.26875 23.2127 9.80625 23.0627 10.1812C24.019 11.2312 24.6002 12.5625 24.6002 14.2125C24.6002 19.9687 21.094 21.2437 17.7565 21.6187C18.3002 22.0875 18.769 22.9875 18.769 24.3938C18.769 26.4 18.7502 28.0125 18.7502 28.5188C18.7502 28.9125 19.0315 29.3813 19.7815 29.2313C22.7594 28.2262 25.3471 26.3125 27.1803 23.7595C29.0135 21.2066 29.9997 18.1429 30.0002 15C30.0002 6.7125 23.2877 0 15.0002 0Z" fill="url(#paint0_linear_8_36)"/>
</g>
<defs>
<linearGradient id="paint0_linear_8_36" x1="-0.336293" y1="27.0068" x2="31.136" y2="26.1968" gradientUnits="userSpaceOnUse">
<stop stop-color="#D17D00"/>
<stop offset="0.885417" stop-color="#FFAB2D"/>
</linearGradient>
<clipPath id="clip0_8_36">
<rect width="30" height="30" fill="white" transform="translate(0.000244141)"/>
</clipPath>
</defs>
</svg>
