<svg width="30" height="30" viewBox="0 0 30 30" fill="none" xmlns="http://www.w3.org/2000/svg">
<g clip-path="url(#clip0_8_41)">
<path d="M25.5021 4.36134C24.1268 2.97324 22.4889 1.87274 20.6839 1.12398C18.879 0.375216 16.9431 -0.00683301 14.989 9.24947e-05C6.80087 9.24947e-05 0.127744 6.67134 0.120244 14.8613C0.120244 17.4845 0.806494 20.0363 2.10212 22.2957L0.000244141 30.0001L7.88274 27.9338C10.0634 29.1206 12.5064 29.7426 14.989 29.7432H14.9965C23.1865 29.7432 29.8577 23.072 29.8652 14.8745C29.8671 12.9208 29.4824 10.9861 28.7333 9.18174C27.9841 7.37741 26.8853 5.73915 25.5002 4.36134H25.5021ZM14.989 27.227C12.7746 27.2277 10.6009 26.6318 8.69649 25.502L8.24649 25.232L3.57024 26.4582L4.81899 21.8963L4.52649 21.4257C3.28863 19.4576 2.63396 17.1789 2.63837 14.8538C2.63837 8.05509 8.18274 2.50884 14.9965 2.50884C16.6198 2.50593 18.2275 2.82436 19.7272 3.44576C21.2268 4.06717 22.5886 4.97927 23.734 6.12947C24.8834 7.27518 25.7947 8.63714 26.4151 10.1368C27.0356 11.6364 27.353 13.2441 27.349 14.867C27.3415 21.6901 21.7971 27.227 14.989 27.227V27.227ZM21.7671 17.9757C21.3977 17.7901 19.5734 16.892 19.2302 16.7645C18.889 16.6426 18.6396 16.5788 18.3959 16.9501C18.1465 17.3195 17.434 18.1613 17.2202 18.4032C17.0065 18.6526 16.7852 18.6807 16.414 18.497C16.0446 18.3095 14.8465 17.9195 13.429 16.6501C12.3227 15.6657 11.5821 14.447 11.3609 14.0776C11.1471 13.7063 11.3402 13.5076 11.5259 13.322C11.689 13.157 11.8952 12.887 12.0809 12.6732C12.2684 12.4595 12.3302 12.302 12.4521 12.0545C12.574 11.8032 12.5159 11.5895 12.424 11.4038C12.3302 11.2182 11.5896 9.38634 11.2765 8.64759C10.9765 7.91822 10.6709 8.01947 10.4421 8.01009C10.2284 7.99697 9.97899 7.99697 9.72962 7.99697C9.5413 8.00165 9.35598 8.0452 9.1853 8.1249C9.01461 8.2046 8.86224 8.31872 8.73774 8.46009C8.39649 8.83134 7.44212 9.72947 7.44212 11.5613C7.44212 13.3932 8.77337 15.1538 8.96087 15.4032C9.14462 15.6526 11.5746 19.4007 15.304 21.0132C16.1852 21.3976 16.879 21.6245 17.4209 21.797C18.3115 22.082 19.1159 22.0388 19.7571 21.947C20.4696 21.8382 21.9527 21.047 22.2659 20.1788C22.5734 19.3088 22.5734 18.5663 22.4796 18.4107C22.3877 18.2532 22.1384 18.1613 21.7671 17.9757V17.9757Z" fill="url(#paint0_linear_8_41)"/>
</g>
<defs>
<linearGradient id="paint0_linear_8_41" x1="-0.334778" y1="27.69" x2="30.9971" y2="26.907" gradientUnits="userSpaceOnUse">
<stop stop-color="#D17D00"/>
<stop offset="0.885417" stop-color="#FFAB2D"/>
</linearGradient>
<clipPath id="clip0_8_41">
<rect width="30" height="30" fill="white" transform="translate(0.000244141)"/>
</clipPath>
</defs>
</svg>
