<svg width="30" height="30" viewBox="0 0 30 30" fill="none" xmlns="http://www.w3.org/2000/svg">
<path d="M17.7424 15.3757C17.1954 15.1957 16.4079 15.2344 15.3799 15.2344H11.25V20.625H15.6666C16.3566 20.625 16.8412 20.5512 17.1204 20.4996C17.6123 20.4115 18.0237 20.2409 18.3541 20.0351C18.6844 19.8298 18.956 19.5183 19.1693 19.1255C19.3821 18.7327 19.4888 18.273 19.4888 17.7591C19.4888 17.1572 19.3345 16.695 19.0259 16.2506C18.7174 15.8062 18.2897 15.5557 17.7424 15.3757ZM17.1755 12.911C17.7185 12.7498 18.128 12.468 18.4034 12.0938C18.679 11.7192 18.8166 11.2427 18.8166 10.6772C18.8166 10.1414 18.6879 9.66609 18.4308 9.25828C18.1737 8.85047 17.8069 8.69273 17.3295 8.54203C16.852 8.3918 16.0334 8.4375 14.8732 8.4375H11.25V13.125H15.1376C16.0849 13.125 16.7639 13.0359 17.1755 12.911ZM29.5312 4.36523C29.5312 2.2132 27.7868 0.46875 25.6348 0.46875H4.13086C1.97883 0.46875 0.234375 2.2132 0.234375 4.36523V25.8691C0.234375 28.0212 1.97883 29.7656 4.13086 29.7656H25.6348C27.7868 29.7656 29.5312 28.0212 29.5312 25.8691V4.36523ZM21.2234 19.8621C20.9041 20.512 20.5092 21.0131 20.0393 21.3656C19.5691 21.7181 18.9797 22.0172 18.2712 22.1972C17.5629 22.3774 16.6943 22.5 15.6666 22.5H9.14062V6.32812H15.5672C16.8009 6.32812 17.7902 6.47086 18.5355 6.79734C19.2811 7.1243 19.8647 7.61695 20.2873 8.29617C20.7094 8.97539 20.9205 9.68062 20.9205 10.4222C20.9205 11.1124 20.733 11.76 20.3587 12.3694C19.9842 12.9792 19.4187 13.4695 18.6626 13.8441C19.639 14.1305 20.3899 14.6184 20.9149 15.3084C21.4399 15.9987 21.7024 16.8136 21.7024 17.7534C21.7024 18.5098 21.5428 19.2124 21.2234 19.8621Z" fill="#C7C7C7"/>
</svg>
