<svg width="30" height="30" viewBox="0 0 30 30" fill="none" xmlns="http://www.w3.org/2000/svg">
<path d="M5.53312 25.5009L3.42749 1.875H26.5725L24.4641 25.4972L14.9859 28.125L5.53312 25.5009Z" fill="#C7C7C7"/>
<path d="M15 26.1168L22.6594 23.9934L24.4612 3.80713H15V26.1168Z" fill="#C7C7C7"/>
<path d="M15 12.3666H18.8344L19.0987 9.3994H15V6.50159H15.0103H22.2656L22.1963 7.27877L21.4847 15.2644H15V12.3666Z" fill="white"/>
<path d="M15.0179 19.8918L15.0048 19.8956L11.7779 19.0237L11.5717 16.7128H10.0032H8.6626L9.06854 21.2625L15.0038 22.9106L15.0179 22.9068V19.8918Z" fill="white"/>
<path d="M18.5879 15.1416L18.2391 19.0219L15.0076 19.8938V22.9088L20.9476 21.2625L20.9916 20.7732L21.4951 15.1416H18.5879Z" fill="white"/>
<path d="M15.0103 6.50159V8.30159V9.3919V9.3994H8.02028H8.01091L7.95278 8.74784L7.8206 7.27877L7.75122 6.50159H15.0103Z" fill="white"/>
<path d="M15 12.3666V14.1666V15.2569V15.2644H11.8228H11.8134L11.7553 14.6128L11.6241 13.1438L11.5547 12.3666H15Z" fill="white"/>
</svg>
