<svg width="30" height="30" viewBox="0 0 30 30" fill="none" xmlns="http://www.w3.org/2000/svg">
<path d="M10.0039 30C11.33 30 12.6018 29.4732 13.5394 28.5355C14.4771 27.5979 15.0039 26.3261 15.0039 25V20H10.0039C8.67782 20 7.40605 20.5268 6.46837 21.4645C5.53069 22.4021 5.00391 23.6739 5.00391 25C5.00391 26.3261 5.53069 27.5979 6.46837 28.5355C7.40605 29.4732 8.67782 30 10.0039 30Z" fill="#C7C7C7"/>
<path d="M5.00391 15C5.00391 13.6739 5.53069 12.4021 6.46837 11.4645C7.40605 10.5268 8.67782 10 10.0039 10H15.0039V20H10.0039C8.67782 20 7.40605 19.4732 6.46837 18.5355C5.53069 17.5979 5.00391 16.3261 5.00391 15Z" fill="#C7C7C7"/>
<path d="M5.00391 5C5.00391 3.67459 5.53015 2.40342 6.46699 1.46585C7.40383 0.528277 8.67459 0.00103547 10 0L15 0V10H10.0039C8.67782 10 7.40605 9.47321 6.46837 8.53553C5.53069 7.59785 5.00391 6.32608 5.00391 5Z" fill="#C7C7C7"/>
<path d="M15.0039 0H20.0039C21.33 0 22.6018 0.526784 23.5394 1.46447C24.4771 2.40215 25.0039 3.67392 25.0039 5C25.0039 6.32608 24.4771 7.59785 23.5394 8.53553C22.6018 9.47321 21.33 10 20.0039 10H15.0039V0Z" fill="#C7C7C7"/>
<path d="M25.0039 15C25.0039 16.3261 24.4771 17.5979 23.5394 18.5355C22.6018 19.4732 21.33 20 20.0039 20C18.6778 20 17.4061 19.4732 16.4684 18.5355C15.5307 17.5979 15.0039 16.3261 15.0039 15C15.0039 13.6739 15.5307 12.4021 16.4684 11.4645C17.4061 10.5268 18.6778 10 20.0039 10C21.33 10 22.6018 10.5268 23.5394 11.4645C24.4771 12.4021 25.0039 13.6739 25.0039 15Z" fill="#C7C7C7"/>
</svg>
