<svg width="30" height="30" viewBox="0 0 30 30" fill="none" xmlns="http://www.w3.org/2000/svg">
<path d="M5.53308 25.5009L3.42651 1.875H26.5734L24.464 25.4972L14.9859 28.125L5.53308 25.5009Z" fill="#C7C7C7"/>
<path d="M15 26.1168L22.6594 23.9934L24.4612 3.80713H15V26.1168Z" fill="#C7C7C7"/>
<path d="M15 12.5691H11.1656L10.9013 9.60191H15V6.7041H14.9897H7.73438L7.80375 7.48223L8.51531 15.4669H15V12.5691Z" fill="white"/>
<path d="M15.0001 20.0944L14.987 20.0981L11.7601 19.2272L11.5538 16.9163H9.9854H8.64478L9.05071 21.465L14.987 23.1131L15.0001 23.1094V20.0944Z" fill="white"/>
<path d="M14.9897 12.5691V15.4669H18.5579L18.2222 19.2253L14.9897 20.0972V23.1122L20.9307 21.465L20.9738 20.9757L21.6544 13.3472L21.7257 12.5691H20.9447H14.9897Z" fill="white"/>
<path d="M14.9897 6.7041V8.5041V9.59535V9.60191H21.9797H21.9891L22.0472 8.95129L22.1794 7.48223L22.2488 6.7041H14.9897Z" fill="white"/>
</svg>
