<svg width="30" height="30" viewBox="0 0 30 30" fill="none" xmlns="http://www.w3.org/2000/svg">
<path d="M24.478 16.4737C23.6537 16.4748 22.8404 16.6633 22.0996 17.025C21.8677 16.6401 21.6886 16.2258 21.5671 15.7931C21.4973 15.454 21.4812 15.106 21.5193 14.7619C21.5994 14.3832 21.7034 14.0099 21.8305 13.6444C21.8258 13.5966 21.7733 13.3706 21.2455 13.3631C20.7177 13.3556 20.263 13.4634 20.2143 13.6031C20.1226 13.8583 20.049 14.1195 19.994 14.385C19.5571 15.4627 19.0194 16.4966 18.388 17.4731C18.0343 16.8932 17.8888 16.21 17.9755 15.5362C18.0557 15.1576 18.1596 14.7843 18.2868 14.4187C18.2821 14.3709 18.2296 14.145 17.7018 14.1375C17.174 14.13 16.7193 14.2378 16.6705 14.3775C16.6218 14.5172 16.5599 14.8462 16.4502 15.1594C16.3405 15.4725 15.0599 18.3337 14.7243 19.0716C14.5518 19.4466 14.4027 19.7522 14.2977 19.9584C14.2927 19.9718 14.2865 19.9847 14.279 19.9969C14.1852 20.1741 14.1355 20.2706 14.1355 20.2706V20.2753C14.0633 20.4047 13.9865 20.5247 13.948 20.5247C13.881 20.2568 13.8842 19.9762 13.9574 19.71C14.1449 18.7172 14.6043 17.1741 14.5996 17.1206C14.5996 17.0916 14.6858 16.8234 14.3024 16.6847C14.2135 16.6424 14.1136 16.6287 14.0166 16.6454C13.9195 16.6622 13.8301 16.7087 13.7605 16.7784C13.7268 16.7784 13.7033 16.86 13.7033 16.86C13.7033 16.86 14.1205 15.1247 12.9074 15.1247C12.435 15.2197 11.9864 15.4082 11.5879 15.6792C11.1894 15.9502 10.8491 16.2981 10.5871 16.7025C10.2608 16.8797 9.56616 17.2584 8.82273 17.6662C8.54148 17.8247 8.2471 17.9831 7.97429 18.135C7.95554 18.1162 7.93585 18.0919 7.9171 18.0731C6.44054 16.5 3.72647 15.39 3.84366 13.2853C3.88679 12.5184 4.15023 10.5047 9.05523 8.05874C13.0921 6.06937 16.3049 6.62062 16.8609 7.84312C17.6568 9.58875 15.1396 12.8297 10.9687 13.2994C10.5072 13.393 10.0307 13.3817 9.57419 13.2663C9.11771 13.1509 8.69301 12.9344 8.33147 12.6328C8.11116 12.3928 8.07741 12.3787 7.99585 12.4266C7.86179 12.4987 7.94804 12.7144 7.99585 12.8391C8.15497 13.127 8.37018 13.3802 8.62878 13.5835C8.88739 13.7869 9.18413 13.9364 9.50148 14.0231C11.1423 14.3777 12.8531 14.2082 14.3924 13.5384C16.9237 12.5606 18.8924 9.84187 18.3149 7.56468C17.7346 5.25375 13.8993 4.49156 10.2693 5.78343C7.99562 6.5485 5.89475 7.75359 4.08648 9.32999C2.08679 11.2003 1.77085 12.825 1.90022 13.5066C2.36897 15.9234 5.69804 17.4956 7.03022 18.6628C6.96273 18.7012 6.90085 18.735 6.84835 18.7631C6.18179 19.0941 3.64116 20.4225 3.0046 21.8269C2.28554 23.4206 3.11991 24.5597 3.67116 24.7134C4.50179 24.9123 5.37378 24.8468 6.16539 24.5261C6.957 24.2054 7.62873 23.6456 8.08679 22.9247C8.47685 22.3268 8.71661 21.6434 8.78566 20.9329C8.8547 20.2223 8.75099 19.5056 8.48335 18.8437C8.47883 18.833 8.47249 18.8232 8.4646 18.8147L8.98679 18.5081C9.3271 18.3066 9.66272 18.12 9.95054 17.9662C9.75537 18.5292 9.6408 19.1169 9.61023 19.7119C9.54396 20.6238 9.82305 21.5274 10.3921 22.2431C10.4787 22.3177 10.5792 22.3743 10.6878 22.4097C10.7965 22.4451 10.911 22.4586 11.0249 22.4494C11.5874 22.4494 11.8452 21.9806 12.1274 21.4237C12.4724 20.7431 12.7837 19.9519 12.7837 19.9519C12.7837 19.9519 12.3955 22.0903 13.4502 22.0903C13.8337 22.0903 14.2218 21.5916 14.3952 21.3403V21.345C14.3952 21.345 14.4046 21.3309 14.4243 21.2972L14.4862 21.1969V21.1875C14.6399 20.9194 14.9849 20.31 15.4977 19.2984C16.1596 17.9944 16.7971 16.3641 16.7971 16.3641C16.8586 16.7223 16.9435 17.0762 17.0512 17.4234C17.2056 17.8443 17.3882 18.2543 17.5977 18.6506C17.444 18.8662 17.3483 18.9862 17.3483 18.9862L17.353 18.9909C17.2283 19.1541 17.0943 19.3312 16.9452 19.5037C16.5017 19.9913 16.0902 20.5071 15.7133 21.0478C15.6573 21.1386 15.6381 21.2474 15.6595 21.3519C15.681 21.4564 15.7414 21.5488 15.8287 21.6103C16.026 21.713 16.251 21.7501 16.4708 21.7162C16.8022 21.6975 17.128 21.6231 17.4346 21.4959C17.7309 21.3917 18.0104 21.2448 18.2643 21.06C18.5261 20.8786 18.7368 20.633 18.8762 20.3466C19.0156 20.0603 19.079 19.7429 19.0602 19.425C19.0307 19.0245 18.9284 18.6328 18.7584 18.2691C18.8062 18.2016 18.8521 18.135 18.8971 18.0675C19.4301 17.2719 19.9105 16.4423 20.3352 15.5841C20.3967 15.9423 20.4816 16.2962 20.5893 16.6434C20.7166 17.0071 20.8734 17.3599 21.058 17.6981C20.4449 18.1699 19.9619 18.79 19.6546 19.5C19.3527 20.3728 19.5871 20.7656 20.0296 20.8566C20.2717 20.8732 20.5138 20.8237 20.7299 20.7131C21.0476 20.6087 21.3469 20.455 21.6168 20.2575C21.9014 20.0895 22.1397 19.8535 22.3104 19.5705C22.4811 19.2876 22.5788 18.9666 22.5946 18.6366C22.5733 18.3071 22.4989 17.9832 22.3743 17.6775C23.1834 17.3614 24.0608 17.2606 24.9205 17.385C27.2024 17.6531 27.6534 19.0772 27.5671 19.6772C27.5266 19.8899 27.4411 20.0915 27.3163 20.2684C27.1915 20.4453 27.0302 20.5934 26.8433 20.7028C26.6849 20.8031 26.6324 20.8369 26.6465 20.9091C26.6652 21.015 26.7402 21.0094 26.8762 20.9906C27.2201 20.8837 27.5235 20.6751 27.7464 20.3922C27.9694 20.1094 28.1013 19.7656 28.1249 19.4062C28.1971 18 26.8546 16.4578 24.4809 16.4719L24.478 16.4737ZM6.87179 22.4062C6.11429 23.2312 5.0596 23.5425 4.60397 23.2791C4.1146 22.9978 4.30679 21.7791 5.23679 20.9053C5.78846 20.4087 6.38473 19.964 7.01804 19.5769C7.12866 19.5094 7.29179 19.4137 7.48679 19.2956L7.53929 19.2666L7.6546 19.1944C7.82075 19.7511 7.83581 20.3419 7.69825 20.9063C7.56068 21.4708 7.27544 21.9884 6.87179 22.4062ZM12.3852 18.6562C12.1218 19.2984 11.5705 20.9437 11.2349 20.8519C10.9471 20.775 10.7662 19.5281 11.1777 18.2962C11.3855 17.7032 11.6882 17.1479 12.074 16.6519C12.4865 16.1916 12.9421 16.0378 13.0518 16.2253C12.9517 17.0643 12.7271 17.8836 12.3852 18.6562ZM16.9349 20.8331C16.8243 20.8903 16.7193 20.9269 16.6715 20.9006C16.6377 20.8819 16.7193 20.8069 16.7193 20.8069C16.7193 20.8069 17.2902 20.1928 17.5152 19.9153C17.6446 19.7522 17.7965 19.5609 17.9615 19.3444V19.4062C17.9615 20.1394 17.2518 20.6334 16.9359 20.835L16.9349 20.8331ZM20.4449 20.0325C20.3633 19.9753 20.3774 19.7831 20.6512 19.1841C20.8415 18.7993 21.1074 18.4569 21.433 18.1772C21.483 18.3191 21.5089 18.4683 21.5099 18.6187C21.5136 18.9389 21.4112 19.2514 21.2187 19.5073C21.0263 19.7632 20.7545 19.9482 20.4459 20.0334L20.4449 20.0325Z" fill="#C7C7C7"/>
</svg>
