<svg width="30" height="30" viewBox="0 0 30 30" fill="none" xmlns="http://www.w3.org/2000/svg">
<path d="M26.7751 0H3.22489C1.44383 0 0 1.44383 0 3.22489V26.7751C0 28.5562 1.44383 30 3.22489 30H26.7751C28.5562 30 30 28.5562 30 26.7751V3.22489C30 1.44383 28.5562 0 26.7751 0Z" fill="#C7C7C7"/>
<path fill-rule="evenodd" clip-rule="evenodd" d="M15.4032 24.4837C14.5545 24.4837 14.2999 24.5261 13.4088 24.3564L12.348 24.1442C12.4753 23.5077 14.4272 18.1188 14.7667 16.9731C14.8516 16.7609 15.1062 16.082 15.1486 15.9123H15.191C15.2335 16.082 15.6578 17.1852 15.7426 17.4398C15.7851 17.6096 15.8699 17.7793 15.9124 17.949C16.5489 19.519 17.1429 21.3861 17.737 22.9561C17.8643 23.2956 17.9916 23.6775 18.1189 23.9745C17.9067 24.0169 17.7794 24.1018 17.5248 24.1442C16.8035 24.314 16.2094 24.4837 15.4032 24.4837ZM14.5545 4.41296H15.488C16.167 4.4554 16.8883 4.54026 17.6521 4.75243C18.6281 5.00702 18.7129 5.09189 19.5192 5.43135L20.3254 5.85568C21.5984 6.61947 22.8289 7.68029 23.6776 8.91084C23.9322 9.29274 24.4414 10.099 24.6111 10.5233C25.3749 12.4328 25.5871 13.1117 25.5871 15.3606C25.5871 16.9731 24.993 18.9674 24.1443 20.3253C22.9138 22.4045 20.877 24.1867 18.5856 24.9929C17.5248 25.3323 16.5064 25.5445 15.4456 25.5869H14.5121C13.324 25.5445 12.1359 25.2475 10.9477 24.7807L10.0566 24.3564C9.58989 24.0594 9.50502 24.0594 8.86853 23.635C6.87419 22.2772 5.34661 20.0282 4.75255 17.6096C4.41309 16.3366 4.41309 15.8698 4.41309 14.6393C4.41309 13.7906 4.58282 13.0268 4.75255 12.3479C4.96471 11.4992 5.38904 10.4384 5.8558 9.67463C7.08635 7.59542 9.12313 5.81325 11.4145 5.00702C12.4753 4.66756 13.4937 4.4554 14.5545 4.41296ZM5.51634 15.4031C5.51634 13.9603 5.6012 12.942 6.15283 11.5417C6.19526 11.4144 6.2377 11.2871 6.32256 11.2022L8.5715 17.3125C8.91096 18.3734 9.33529 19.3917 9.67475 20.4101C9.88692 20.9193 10.0566 21.4285 10.2688 21.9377L10.8204 23.5077C10.1839 23.3804 8.4442 21.9801 7.97744 21.3861C7.72285 21.0466 7.55311 20.9618 7.21365 20.4101C6.28013 19.0523 5.51634 17.2277 5.51634 15.4031ZM23.3806 10.5657L23.5079 10.7355C24.0595 11.8387 24.4838 13.3663 24.4838 14.5968C24.4838 15.9971 24.4414 16.6336 24.017 18.0339C23.8473 18.4158 23.7624 18.7553 23.5503 19.1371C23.0411 20.198 22.447 20.9618 21.5984 21.8104L20.7497 22.5318C20.4527 22.7864 20.1557 22.9985 19.8162 23.1683C19.9011 22.7439 22.4046 15.5728 22.7441 14.7241C23.2533 13.4087 23.423 12.6874 23.423 11.1173C23.423 10.8628 23.3806 10.7779 23.3806 10.5657ZM19.6889 9.54733C19.6889 11.3295 21.3862 12.2206 21.3862 14.2998C21.3862 15.2333 21.3438 15.3606 21.0892 16.2942C20.9194 16.8033 20.7922 17.2701 20.6224 17.7369L19.9859 19.9009C19.9435 20.1131 19.8162 20.4526 19.7738 20.6647C19.6465 20.5799 19.3919 19.6039 19.307 19.4342L16.761 11.8387C16.6762 11.6265 16.3791 10.7355 16.3367 10.5657C16.5913 10.5657 17.0156 10.5233 17.2278 10.4809C17.6521 10.4384 17.737 10.396 17.737 10.0141C17.737 9.84436 17.6097 9.67463 17.44 9.67463C16.7186 9.67463 16.1245 9.7595 15.3608 9.7595H14.3424C13.5361 9.7595 12.8996 9.67463 12.1359 9.67463C12.051 9.67463 11.8813 9.84436 11.8813 10.099C11.8813 10.4384 12.0934 10.4384 12.3905 10.4809C12.6026 10.4809 13.1118 10.4809 13.2391 10.6082L14.5545 14.1725C14.6818 14.5544 14.7243 14.512 14.597 14.8939L13.1542 19.2644C13.0694 19.519 12.6875 20.5799 12.6875 20.7496C12.5602 20.6647 12.5602 20.6223 12.5178 20.495L12.2207 19.519C12.051 19.0947 11.9237 18.7128 11.7964 18.2461C11.4994 17.3974 11.2023 16.5487 10.9053 15.7001C10.778 15.2333 9.29286 11.0325 9.20799 10.5657C9.42016 10.5657 10.3112 10.5233 10.481 10.396C10.6931 10.1838 10.6931 9.8868 10.481 9.7595C10.3112 9.58977 9.80205 9.67463 9.58989 9.71707L7.08635 9.7595C7.51068 9.12301 7.89258 8.65624 8.40177 8.14705C8.52907 8.01975 8.65637 7.93489 8.78367 7.80759C9.03826 7.55299 9.75962 7.0438 10.0991 6.87407C10.3961 6.70434 10.6931 6.5346 11.0326 6.36487C13.9605 5.04946 17.4824 5.21919 20.1557 7.0438C20.4951 7.25596 21.174 7.68029 21.3438 7.97732C20.7922 7.97732 20.4951 8.14705 20.1981 8.44408C19.9435 8.65624 19.6889 9.08057 19.6889 9.54733Z" fill="white"/>
<path fill-rule="evenodd" clip-rule="evenodd" d="M25.5869 15.3607C25.5869 16.9732 24.9928 18.9675 24.1442 20.3254C22.9136 22.4046 20.8769 24.1867 18.5855 24.993C17.5247 25.3324 16.5063 25.5446 15.4455 25.587H14.5119C13.3238 25.5446 12.1357 25.2476 10.9476 24.7808L10.0565 24.3565C9.58972 24.0594 9.50486 24.0594 8.86837 23.6351C8.7835 23.5927 8.69864 23.5078 8.61377 23.4654L15.1484 30H26.775L29.9999 26.7751V15.0212L22.6166 7.63794C22.9985 8.01983 23.3804 8.4866 23.6774 8.91092C23.932 9.29282 24.4412 10.099 24.6109 10.5234C25.3747 12.4328 25.5869 13.1542 25.5869 15.3607Z" fill="#C7C7C7"/>
<path fill-rule="evenodd" clip-rule="evenodd" d="M17.7369 22.9562C17.1428 21.3862 16.5487 19.5191 15.9123 17.9491L15.7425 17.4399C15.6577 17.1853 15.2333 16.0821 15.2333 15.9124H15.106C15.106 16.0821 14.8514 16.761 14.7666 16.9732C14.4271 18.1189 12.4752 23.5078 12.3479 24.1443L13.4087 24.3565C14.2998 24.5262 14.5544 24.4838 15.4031 24.4838C16.2093 24.4838 16.8033 24.3141 17.5247 24.1443C17.7793 24.1019 17.9066 24.017 18.1188 23.9746C17.9915 23.6776 17.8642 23.2957 17.7369 22.9562Z" fill="#C7C7C7"/>
<path fill-rule="evenodd" clip-rule="evenodd" d="M9.67477 20.4102C9.33531 19.3918 8.91098 18.3734 8.57152 17.3126L6.32258 11.2023C6.23772 11.2871 6.19528 11.4144 6.15285 11.5417C5.60122 12.942 5.51636 13.9604 5.51636 15.4031C5.51636 17.2277 6.28015 19.0523 7.21367 20.4102C7.55313 20.9618 7.72286 21.0467 7.97746 21.3861C8.44422 21.9802 10.184 23.3805 10.8205 23.5078L10.2264 21.9378C10.0567 21.4286 9.88694 20.9194 9.67477 20.4102Z" fill="#C7C7C7"/>
<path fill-rule="evenodd" clip-rule="evenodd" d="M10.9051 15.7002L11.7962 18.2462L12.2206 19.5191L12.5176 20.4951C12.56 20.6224 12.56 20.6648 12.6873 20.7497C12.6873 20.58 13.0692 19.5191 13.1541 19.2645L14.5968 14.894C14.7241 14.5121 14.6817 14.5545 14.5544 14.1726L13.2389 10.6083C13.1116 10.481 12.6024 10.481 12.3903 10.481C12.0933 10.4385 11.8811 10.4385 11.8811 10.0991C11.8811 9.84447 12.0508 9.67473 12.1357 9.67473C12.8995 9.67473 13.536 9.7596 14.3422 9.7596H15.3606C16.1244 9.7596 16.7184 9.67473 17.4398 9.67473C17.6095 9.67473 17.7368 9.84447 17.7368 10.0142C17.7368 10.3961 17.652 10.4385 17.2276 10.481C17.0155 10.5234 16.5911 10.5658 16.3365 10.5658C16.379 10.7356 16.676 11.6266 16.7609 11.8388L19.3068 19.4343C19.3917 19.604 19.6463 20.58 19.7736 20.6648C19.816 20.4527 19.9433 20.1132 19.9858 19.901L20.6222 17.737L21.089 16.2943C21.3436 15.3607 21.386 15.2334 21.386 14.2999C21.386 12.2207 19.6887 11.3296 19.6887 9.54744C19.6887 9.08067 19.9433 8.65635 20.1979 8.44418C20.495 8.14715 20.792 7.97742 21.3436 7.97742C21.1739 7.68039 20.495 7.25606 20.1555 7.0439C17.4822 5.21929 13.9603 5.04956 11.0324 6.36497C10.693 6.53471 10.3959 6.70444 10.0989 6.87417C9.75945 7.0439 9.03809 7.55309 8.78349 7.80769C8.6562 7.93499 8.5289 8.01985 8.4016 8.14715C7.89241 8.65635 7.51051 9.12311 7.08618 9.7596L9.58972 9.71717C9.80188 9.67473 10.3111 9.58987 10.4808 9.7596C10.693 9.8869 10.693 10.1839 10.4808 10.3961C10.3111 10.5234 9.41999 10.5658 9.20782 10.5658C9.29269 11.0326 10.7778 15.2334 10.9051 15.7002Z" fill="#C7C7C7"/>
<path fill-rule="evenodd" clip-rule="evenodd" d="M22.744 14.7242C22.4046 15.5729 19.901 22.744 19.8162 23.1683C20.1556 22.9986 20.4527 22.7864 20.7497 22.5319L21.5983 21.8105C22.447 20.9618 23.0411 20.198 23.5503 19.1372C23.7624 18.7553 23.8473 18.4159 24.017 18.034C24.4413 16.6337 24.4838 15.9972 24.4838 14.5969C24.4838 13.3664 24.0594 11.8388 23.5078 10.7355L23.3805 10.5658C23.3805 10.778 23.423 10.8628 23.423 11.1174C23.423 12.6874 23.2532 13.4088 22.744 14.7242Z" fill="#C7C7C7"/>
</svg>
