<svg width="386" height="70" viewBox="0 0 386 70" fill="none" xmlns="http://www.w3.org/2000/svg">
<path d="M44.56 48.928H36.832L36.256 35.92C36.096 32.816 36.016 30.048 36.016 27.616C36.016 25.76 36.064 24 36.16 22.336L31.024 45.424H23.584L18.112 22.336C18.304 25.12 18.4 27.744 18.4 30.208C18.4 32.064 18.352 34 18.256 36.016L17.68 48.928H10L12.496 15.664H22.432L27.424 38.224L32.08 15.664H42.064L44.56 48.928Z" fill="#161616"/>
<path d="M69.3824 41.536C69.3824 42.496 69.5104 43.2 69.7664 43.648C70.0544 44.096 70.5024 44.432 71.1104 44.656L69.5264 49.6C67.9584 49.472 66.6784 49.136 65.6864 48.592C64.6944 48.016 63.9264 47.12 63.3824 45.904C61.7184 48.464 59.1584 49.744 55.7024 49.744C53.1744 49.744 51.1584 49.008 49.6544 47.536C48.1504 46.064 47.3984 44.144 47.3984 41.776C47.3984 38.992 48.4224 36.864 50.4704 35.392C52.5184 33.92 55.4784 33.184 59.3504 33.184H61.9424V32.08C61.9424 30.576 61.6224 29.552 60.9824 29.008C60.3424 28.432 59.2224 28.144 57.6224 28.144C56.7904 28.144 55.7824 28.272 54.5984 28.528C53.4144 28.752 52.1984 29.072 50.9504 29.488L49.2224 24.496C50.8224 23.888 52.4544 23.424 54.1184 23.104C55.8144 22.784 57.3824 22.624 58.8224 22.624C62.4704 22.624 65.1424 23.376 66.8384 24.88C68.5344 26.384 69.3824 28.64 69.3824 31.648V41.536ZM57.9104 44.32C59.6384 44.32 60.9824 43.504 61.9424 41.872V37.36H60.0704C58.3424 37.36 57.0464 37.664 56.1824 38.272C55.3504 38.88 54.9344 39.824 54.9344 41.104C54.9344 42.128 55.1904 42.928 55.7024 43.504C56.2464 44.048 56.9824 44.32 57.9104 44.32Z" fill="#161616"/>
<path d="M83.0072 23.44V48.928H75.4232V23.44H83.0072ZM79.1673 10C80.4793 10 81.5512 10.416 82.3832 11.248C83.2472 12.048 83.6793 13.072 83.6793 14.32C83.6793 15.568 83.2472 16.608 82.3832 17.44C81.5512 18.24 80.4793 18.64 79.1673 18.64C77.8553 18.64 76.7832 18.24 75.9512 17.44C75.1192 16.608 74.7032 15.568 74.7032 14.32C74.7032 13.072 75.1192 12.048 75.9512 11.248C76.7832 10.416 77.8553 10 79.1673 10Z" fill="#161616"/>
<path d="M100.01 22.624C101.77 22.624 103.354 22.88 104.762 23.392C106.17 23.904 107.498 24.688 108.746 25.744L105.482 30.256C103.882 29.04 102.266 28.432 100.634 28.432C98.9381 28.432 97.6581 29.056 96.7941 30.304C95.9301 31.552 95.4981 33.568 95.4981 36.352C95.4981 39.04 95.9301 40.944 96.7941 42.064C97.6581 43.184 98.9061 43.744 100.538 43.744C101.402 43.744 102.186 43.616 102.89 43.36C103.594 43.072 104.442 42.624 105.434 42.016L108.746 46.72C106.218 48.736 103.354 49.744 100.154 49.744C97.5621 49.744 95.3221 49.2 93.4341 48.112C91.5461 46.992 90.0901 45.44 89.0661 43.456C88.0421 41.44 87.5301 39.088 87.5301 36.4C87.5301 33.712 88.0421 31.328 89.0661 29.248C90.0901 27.168 91.5461 25.552 93.4341 24.4C95.3221 23.216 97.5141 22.624 100.01 22.624Z" fill="#161616"/>
<path d="M122.041 22.624C125.945 22.624 129.001 23.824 131.209 26.224C133.417 28.592 134.521 31.92 134.521 36.208C134.521 38.928 134.009 41.312 132.985 43.36C131.993 45.376 130.553 46.944 128.665 48.064C126.809 49.184 124.601 49.744 122.041 49.744C118.169 49.744 115.113 48.56 112.873 46.192C110.665 43.792 109.561 40.448 109.561 36.16C109.561 33.44 110.057 31.072 111.049 29.056C112.073 27.008 113.513 25.424 115.369 24.304C117.257 23.184 119.481 22.624 122.041 22.624ZM122.041 28.192C120.505 28.192 119.353 28.848 118.585 30.16C117.817 31.44 117.433 33.44 117.433 36.16C117.433 38.944 117.801 40.976 118.537 42.256C119.305 43.536 120.473 44.176 122.041 44.176C123.577 44.176 124.729 43.536 125.497 42.256C126.265 40.944 126.649 38.928 126.649 36.208C126.649 33.424 126.265 31.392 125.497 30.112C124.761 28.832 123.609 28.192 122.041 28.192Z" fill="#161616"/>
<path d="M153.961 22.624C156.169 22.624 157.897 23.296 159.145 24.64C160.393 25.984 161.017 27.872 161.017 30.304V48.928H153.433V31.6C153.433 30.32 153.225 29.44 152.809 28.96C152.425 28.448 151.833 28.192 151.033 28.192C149.497 28.192 148.025 29.296 146.617 31.504V48.928H139.033V23.44H145.657L146.185 26.464C147.273 25.184 148.441 24.224 149.689 23.584C150.969 22.944 152.393 22.624 153.961 22.624Z" fill="#161616"/>
<path d="M196.126 48.928V34.672H186.142V48.928H178.27V15.664H186.142V28.528H196.126V15.664H203.998V48.928H196.126Z" fill="#161616"/>
<path d="M232.319 35.68C232.319 36.736 232.271 37.648 232.175 38.416H216.383C216.639 40.56 217.247 42.064 218.207 42.928C219.167 43.792 220.495 44.224 222.191 44.224C223.215 44.224 224.207 44.048 225.167 43.696C226.127 43.312 227.167 42.736 228.287 41.968L231.407 46.192C228.431 48.56 225.119 49.744 221.471 49.744C217.343 49.744 214.175 48.528 211.967 46.096C209.759 43.664 208.655 40.4 208.655 36.304C208.655 33.712 209.119 31.392 210.047 29.344C210.975 27.264 212.335 25.632 214.127 24.448C215.919 23.232 218.063 22.624 220.559 22.624C224.239 22.624 227.119 23.776 229.199 26.08C231.279 28.384 232.319 31.584 232.319 35.68ZM224.879 33.52C224.815 29.616 223.439 27.664 220.751 27.664C219.439 27.664 218.415 28.144 217.679 29.104C216.975 30.064 216.543 31.648 216.383 33.856H224.879V33.52Z" fill="#161616"/>
<path d="M251.508 22.624C253.716 22.624 255.443 23.296 256.691 24.64C257.939 25.984 258.564 27.872 258.564 30.304V48.928H250.98V31.6C250.98 30.32 250.771 29.44 250.355 28.96C249.971 28.448 249.379 28.192 248.579 28.192C247.043 28.192 245.571 29.296 244.163 31.504V48.928H236.579V23.44H243.204L243.732 26.464C244.82 25.184 245.988 24.224 247.236 23.584C248.516 22.944 249.94 22.624 251.508 22.624Z" fill="#161616"/>
<path d="M278.107 22.72C279.035 22.72 279.883 22.832 280.651 23.056L279.451 30.4C278.491 30.176 277.723 30.064 277.147 30.064C275.643 30.064 274.491 30.592 273.691 31.648C272.923 32.672 272.315 34.224 271.867 36.304V48.928H264.283V23.44H270.907L271.531 28.384C272.107 26.624 272.971 25.248 274.123 24.256C275.307 23.232 276.635 22.72 278.107 22.72Z" fill="#161616"/>
<path d="M291.132 23.44V48.928H283.548V23.44H291.132ZM287.292 10C288.604 10 289.676 10.416 290.508 11.248C291.372 12.048 291.804 13.072 291.804 14.32C291.804 15.568 291.372 16.608 290.508 17.44C289.676 18.24 288.604 18.64 287.292 18.64C285.98 18.64 284.908 18.24 284.076 17.44C283.244 16.608 282.828 15.568 282.828 14.32C282.828 13.072 283.244 12.048 284.076 11.248C284.908 10.416 285.98 10 287.292 10Z" fill="#161616"/>
<path d="M319.943 23.44V59.584L312.359 58.768V46.48C310.663 48.656 308.407 49.744 305.591 49.744C302.423 49.744 300.007 48.528 298.343 46.096C296.711 43.664 295.895 40.336 295.895 36.112C295.895 33.488 296.327 31.168 297.191 29.152C298.055 27.104 299.271 25.504 300.839 24.352C302.439 23.2 304.279 22.624 306.359 22.624C308.951 22.624 311.143 23.632 312.935 25.648L313.319 23.44H319.943ZM307.943 44.176C309.703 44.176 311.175 43.216 312.359 41.296V30.304C311.751 29.568 311.143 29.024 310.535 28.672C309.927 28.32 309.223 28.144 308.423 28.144C306.983 28.144 305.847 28.8 305.015 30.112C304.183 31.392 303.767 33.408 303.767 36.16C303.767 39.136 304.119 41.216 304.823 42.4C305.559 43.584 306.599 44.176 307.943 44.176Z" fill="#161616"/>
<path d="M347.38 48.928H340.804L340.468 45.712C338.612 48.4 336.036 49.744 332.74 49.744C330.404 49.744 328.628 49.04 327.412 47.632C326.228 46.224 325.636 44.256 325.636 41.728V23.44H333.22V40.768C333.22 42.016 333.412 42.896 333.796 43.408C334.212 43.888 334.836 44.128 335.668 44.128C337.268 44.128 338.644 43.136 339.796 41.152V23.44H347.38V48.928Z" fill="#161616"/>
<path d="M375.569 35.68C375.569 36.736 375.521 37.648 375.425 38.416H359.633C359.889 40.56 360.497 42.064 361.457 42.928C362.417 43.792 363.745 44.224 365.441 44.224C366.465 44.224 367.457 44.048 368.417 43.696C369.377 43.312 370.417 42.736 371.537 41.968L374.657 46.192C371.681 48.56 368.369 49.744 364.721 49.744C360.593 49.744 357.425 48.528 355.217 46.096C353.009 43.664 351.905 40.4 351.905 36.304C351.905 33.712 352.369 31.392 353.297 29.344C354.225 27.264 355.585 25.632 357.377 24.448C359.169 23.232 361.313 22.624 363.809 22.624C367.489 22.624 370.369 23.776 372.449 26.08C374.529 28.384 375.569 31.584 375.569 35.68ZM368.129 33.52C368.065 29.616 366.689 27.664 364.001 27.664C362.689 27.664 361.665 28.144 360.929 29.104C360.225 30.064 359.793 31.648 359.633 33.856H368.129V33.52Z" fill="#161616"/>
</svg>
