<svg width="15" height="21" viewBox="0 0 15 21" fill="none" xmlns="http://www.w3.org/2000/svg">
<mask id="path-1-inside-1_55_7" fill="white">
<path fill-rule="evenodd" clip-rule="evenodd" d="M7.03224 0.5C7.23944 0.5 7.43815 0.57525 7.58466 0.709196C7.73118 0.843142 7.81349 1.02481 7.81349 1.21424V18.0603L12.7291 13.5649C12.8758 13.4308 13.0748 13.3554 13.2822 13.3554C13.4897 13.3554 13.6887 13.4308 13.8354 13.5649C13.9821 13.699 14.0645 13.8809 14.0645 14.0706C14.0645 14.2602 13.9821 14.4421 13.8354 14.5762L7.58536 20.2902C7.51279 20.3567 7.42658 20.4095 7.33166 20.4455C7.23675 20.4815 7.135 20.5 7.03224 20.5C6.92947 20.5 6.82772 20.4815 6.73281 20.4455C6.6379 20.4095 6.55168 20.3567 6.47911 20.2902L0.229112 14.5762C0.0824138 14.4421 -4.88752e-09 14.2602 0 14.0706C4.88843e-09 13.8809 0.0824138 13.699 0.229112 13.5649C0.37581 13.4308 0.574775 13.3554 0.782237 13.3554C0.989699 13.3554 1.18866 13.4308 1.33536 13.5649L6.25099 18.0603V1.21424C6.25099 1.02481 6.3333 0.843142 6.47981 0.709196C6.62632 0.57525 6.82504 0.5 7.03224 0.5Z"/>
</mask>
<path fill-rule="evenodd" clip-rule="evenodd" d="M7.03224 0.5C7.23944 0.5 7.43815 0.57525 7.58466 0.709196C7.73118 0.843142 7.81349 1.02481 7.81349 1.21424V18.0603L12.7291 13.5649C12.8758 13.4308 13.0748 13.3554 13.2822 13.3554C13.4897 13.3554 13.6887 13.4308 13.8354 13.5649C13.9821 13.699 14.0645 13.8809 14.0645 14.0706C14.0645 14.2602 13.9821 14.4421 13.8354 14.5762L7.58536 20.2902C7.51279 20.3567 7.42658 20.4095 7.33166 20.4455C7.23675 20.4815 7.135 20.5 7.03224 20.5C6.92947 20.5 6.82772 20.4815 6.73281 20.4455C6.6379 20.4095 6.55168 20.3567 6.47911 20.2902L0.229112 14.5762C0.0824138 14.4421 -4.88752e-09 14.2602 0 14.0706C4.88843e-09 13.8809 0.0824138 13.699 0.229112 13.5649C0.37581 13.4308 0.574775 13.3554 0.782237 13.3554C0.989699 13.3554 1.18866 13.4308 1.33536 13.5649L6.25099 18.0603V1.21424C6.25099 1.02481 6.3333 0.843142 6.47981 0.709196C6.62632 0.57525 6.82504 0.5 7.03224 0.5Z" fill="#251600"/>
<path d="M7.03224 0.5L7.03224 -2.5L7.03224 0.5ZM7.58466 0.709196L9.6089 -1.50495L9.6089 -1.50496L7.58466 0.709196ZM7.81349 18.0603H4.81349V24.8692L9.83807 20.2741L7.81349 18.0603ZM12.7291 13.5649L10.7049 11.3507L10.7045 11.3511L12.7291 13.5649ZM13.8354 14.5762L11.8111 12.3621L11.8111 12.3621L13.8354 14.5762ZM7.58536 20.2902L5.56112 18.076L5.55833 18.0786L7.58536 20.2902ZM7.33166 20.4455L6.26757 17.6405L6.26757 17.6405L7.33166 20.4455ZM6.47911 20.2902L8.50614 18.0786L8.50335 18.076L6.47911 20.2902ZM0.229112 14.5762L-1.79513 16.7904L-1.79513 16.7904L0.229112 14.5762ZM0 14.0706L-3 14.0706L0 14.0706ZM0.229112 13.5649L2.25335 15.779L2.25335 15.779L0.229112 13.5649ZM1.33536 13.5649L3.35995 11.3511L3.3596 11.3507L1.33536 13.5649ZM6.25099 18.0603L4.2264 20.2741L9.25099 24.8692L9.25099 18.0603H6.25099ZM6.47981 0.709196L8.50405 2.92335L8.50405 2.92334L6.47981 0.709196ZM7.03224 3.5C6.52629 3.5 5.99291 3.31873 5.56043 2.92335L9.6089 -1.50496C8.8834 -2.16823 7.95259 -2.5 7.03224 -2.5L7.03224 3.5ZM5.56043 2.92334C5.11896 2.51974 4.81349 1.9117 4.81349 1.21424H10.8135C10.8135 0.137929 10.3434 -0.833458 9.6089 -1.50495L5.56043 2.92334ZM4.81349 1.21424V18.0603H10.8135V1.21424H4.81349ZM9.83807 20.2741L14.7537 15.7787L10.7045 11.3511L5.7889 15.8465L9.83807 20.2741ZM14.7534 15.779C14.3211 16.1742 13.7879 16.3554 13.2822 16.3554V10.3554C12.3616 10.3554 11.4306 10.6873 10.7049 11.3507L14.7534 15.779ZM13.2822 16.3554C12.7765 16.3554 12.2434 16.1742 11.8111 15.779L15.8596 11.3507C15.1339 10.6873 14.2028 10.3554 13.2822 10.3554V16.3554ZM11.8111 15.779C11.3698 15.3756 11.0645 14.7678 11.0645 14.0706H17.0645C17.0645 12.994 16.5943 12.0224 15.8596 11.3507L11.8111 15.779ZM11.0645 14.0706C11.0645 13.3733 11.3698 12.7655 11.8111 12.3621L15.8596 16.7904C16.5943 16.1187 17.0645 15.1471 17.0645 14.0706H11.0645ZM11.8111 12.3621L5.56112 18.076L9.6096 22.5043L15.8596 16.7904L11.8111 12.3621ZM5.55833 18.0786C5.77501 17.88 6.01811 17.7352 6.26757 17.6405L8.39575 23.2504C8.83504 23.0838 9.25057 22.8334 9.61239 22.5018L5.55833 18.0786ZM6.26757 17.6405C6.51685 17.5459 6.77598 17.5 7.03224 17.5V23.5C7.49401 23.5 7.95665 23.417 8.39576 23.2504L6.26757 17.6405ZM7.03224 17.5C7.28849 17.5 7.54762 17.5459 7.7969 17.6405L5.66872 23.2504C6.10783 23.417 6.57046 23.5 7.03224 23.5V17.5ZM7.7969 17.6405C8.04636 17.7352 8.28947 17.88 8.50614 18.0786L4.45208 22.5018C4.8139 22.8334 5.22943 23.0838 5.66872 23.2504L7.7969 17.6405ZM8.50335 18.076L2.25335 12.3621L-1.79513 16.7904L4.45487 22.5043L8.50335 18.076ZM2.25335 12.3621C2.69463 12.7655 3 13.3733 3 14.0706L-3 14.0706C-3 15.1471 -2.5298 16.1187 -1.79513 16.7904L2.25335 12.3621ZM3 14.0706C3 14.7678 2.69463 15.3756 2.25335 15.779L-1.79513 11.3507C-2.5298 12.0224 -3 12.994 -3 14.0706L3 14.0706ZM2.25335 15.779C1.82106 16.1742 1.28793 16.3554 0.782237 16.3554V10.3554C-0.138377 10.3554 -1.06944 10.6873 -1.79513 11.3507L2.25335 15.779ZM0.782237 16.3554C0.276548 16.3554 -0.256582 16.1742 -0.688875 15.779L3.3596 11.3507C2.63391 10.6873 1.70285 10.3554 0.782237 10.3554V16.3554ZM-0.689226 15.7787L4.2264 20.2741L8.27557 15.8465L3.35995 11.3511L-0.689226 15.7787ZM9.25099 18.0603V1.21424H3.25099V18.0603H9.25099ZM9.25099 1.21424C9.25099 1.91171 8.94551 2.51975 8.50405 2.92335L4.45557 -1.50496C3.72109 -0.833467 3.25099 0.137918 3.25099 1.21424H9.25099ZM8.50405 2.92334C8.07157 3.31873 7.53819 3.5 7.03224 3.5L7.03224 -2.5C6.11188 -2.5 5.18107 -2.16823 4.45557 -1.50495L8.50405 2.92334Z" fill="black" mask="url(#path-1-inside-1_55_7)"/>
</svg>
